<svg width="60" height="60" viewBox="0 0 60 60" fill="none" xmlns="http://www.w3.org/2000/svg">
<path d="M31.2994 14.3758C30.9501 14.0401 30.4844 13.8525 30 13.8525C29.5155 13.8525 29.0499 14.0401 28.7006 14.3758L18.7387 23.9627C17.5219 25.1327 18.3506 27.1877 20.0381 27.1877H25.7812C25.9055 27.1877 26.0248 27.237 26.1127 27.3249C26.2006 27.4129 26.25 27.5321 26.25 27.6564V45.9377C26.25 46.4349 26.4475 46.9119 26.7992 47.2635C27.1508 47.6151 27.6277 47.8127 28.125 47.8127H31.875C32.3723 47.8127 32.8492 47.6151 33.2008 47.2635C33.5524 46.9119 33.75 46.4349 33.75 45.9377V27.6564C33.75 27.5321 33.7994 27.4129 33.8873 27.3249C33.9752 27.237 34.0944 27.1877 34.2187 27.1877H39.9619C41.6494 27.1877 42.4781 25.1327 41.2612 23.9627L31.2994 14.3758Z" fill="white"/>
<path d="M11.25 1.875C10.0189 1.875 8.79977 2.11749 7.66234 2.58863C6.52492 3.05977 5.49142 3.75032 4.62087 4.62087C2.86272 6.37903 1.875 8.7636 1.875 11.25V48.75C1.875 51.2364 2.86272 53.621 4.62087 55.3791C5.49142 56.2497 6.52492 56.9402 7.66234 57.4114C8.79977 57.8825 10.0189 58.125 11.25 58.125H48.75C51.2364 58.125 53.621 57.1373 55.3791 55.3791C57.1373 53.621 58.125 51.2364 58.125 48.75V11.25C58.125 10.0189 57.8825 8.79977 57.4114 7.66234C56.9402 6.52492 56.2497 5.49142 55.3791 4.62087C54.5086 3.75032 53.4751 3.05977 52.3377 2.58863C51.2002 2.11749 49.9811 1.875 48.75 1.875H11.25ZM5.625 11.25C5.625 9.75816 6.21763 8.32742 7.27252 7.27252C8.32742 6.21763 9.75816 5.625 11.25 5.625H48.75C50.2418 5.625 51.6726 6.21763 52.7275 7.27252C53.7824 8.32742 54.375 9.75816 54.375 11.25V48.75C54.375 50.2418 53.7824 51.6726 52.7275 52.7275C51.6726 53.7824 50.2418 54.375 48.75 54.375H11.25C9.75816 54.375 8.32742 53.7824 7.27252 52.7275C6.21763 51.6726 5.625 50.2418 5.625 48.75V11.25Z" fill="white"/>
</svg>
