<svg width="11" height="11" viewBox="0 0 11 11" fill="none" xmlns="http://www.w3.org/2000/svg">
<path d="M5.5 0C5.69026 0 5.87274 0.075582 6.00727 0.210119C6.14181 0.344656 6.21739 0.527127 6.21739 0.717391V4.78261H10.2826C10.4729 4.78261 10.6553 4.85819 10.7899 4.99273C10.9244 5.12726 11 5.30974 11 5.5C11 5.69026 10.9244 5.87274 10.7899 6.00727C10.6553 6.14181 10.4729 6.21739 10.2826 6.21739H6.21739V10.2826C6.21739 10.4729 6.14181 10.6553 6.00727 10.7899C5.87274 10.9244 5.69026 11 5.5 11C5.30974 11 5.12726 10.9244 4.99273 10.7899C4.85819 10.6553 4.78261 10.4729 4.78261 10.2826V6.21739H0.717391C0.527127 6.21739 0.344656 6.14181 0.210119 6.00727C0.075582 5.87274 0 5.69026 0 5.5C0 5.30974 0.075582 5.12726 0.210119 4.99273C0.344656 4.85819 0.527127 4.78261 0.717391 4.78261H4.78261V0.717391C4.78261 0.527127 4.85819 0.344656 4.99273 0.210119C5.12726 0.075582 5.30974 0 5.5 0Z" fill="#352F2F"/>
</svg>
