<svg width="15" height="14" viewBox="0 0 15 14" fill="none" xmlns="http://www.w3.org/2000/svg">
<path d="M11 7.16211C11 6.67904 10.9089 6.22786 10.7266 5.80859C10.5443 5.38021 10.2936 5.01107 9.97461 4.70117C9.6556 4.38216 9.2819 4.13151 8.85352 3.94922C8.43424 3.75781 7.98307 3.66211 7.5 3.66211C7.20833 3.66211 6.92122 3.69857 6.63867 3.77148C6.36523 3.8444 6.11003 3.94466 5.87305 4.07227L5.01172 3.22461C5.3763 2.99674 5.76823 2.81901 6.1875 2.69141C6.60677 2.5638 7.04427 2.5 7.5 2.5C8.14714 2.5 8.75326 2.62305 9.31836 2.86914C9.88346 3.11523 10.3757 3.44792 10.7949 3.86719C11.2233 4.28646 11.556 4.7832 11.793 5.35742C12.0391 5.92253 12.1621 6.52409 12.1621 7.16211H13.9121L11.5879 9.5L9.25 7.16211H11ZM9.98828 11.1133C9.6237 11.3411 9.23177 11.5189 8.8125 11.6465C8.39323 11.7741 7.95573 11.8379 7.5 11.8379C6.85286 11.8379 6.24674 11.7148 5.68164 11.4688C5.11654 11.2227 4.61979 10.89 4.19141 10.4707C3.77214 10.0423 3.43945 9.54557 3.19336 8.98047C2.95638 8.41536 2.83789 7.80924 2.83789 7.16211H1.08789L3.41211 4.83789L5.75 7.16211H4C4 7.64518 4.09115 8.10091 4.27344 8.5293C4.45573 8.95768 4.70638 9.33138 5.02539 9.65039C5.3444 9.96029 5.71354 10.2064 6.13281 10.3887C6.5612 10.571 7.01693 10.6621 7.5 10.6621C7.79167 10.6621 8.07422 10.6302 8.34766 10.5664C8.63021 10.4935 8.88997 10.3887 9.12695 10.252L9.98828 11.1133Z" fill="#1D1C1C"/>
</svg>
